<svg width="30" height="30" viewBox="0 0 30 30" fill="none" xmlns="http://www.w3.org/2000/svg">
<g clip-path="url(#clip0_131_139)">
<path d="M3 0.999808L3.504 0.135808C3.35203 0.0471273 3.17935 0.00011479 3.00339 -0.000482518C2.82744 -0.00107983 2.65445 0.0447592 2.50188 0.132406C2.3493 0.220053 2.22256 0.346405 2.13444 0.498703C2.04632 0.651001 1.99995 0.823854 2 0.999808H3ZM3 28.9998H2C1.99995 29.1758 2.04632 29.3486 2.13444 29.5009C2.22256 29.6532 2.3493 29.7796 2.50188 29.8672C2.65445 29.9548 2.82744 30.0007 3.00339 30.0001C3.17935 29.9995 3.35203 29.9525 3.504 29.8638L3 28.9998ZM27 14.9998L27.504 15.8638C27.6551 15.7758 27.7804 15.6497 27.8675 15.4981C27.9547 15.3465 28.0005 15.1747 28.0005 14.9998C28.0005 14.825 27.9547 14.6532 27.8675 14.5016C27.7804 14.35 27.6551 14.2238 27.504 14.1358L27 14.9998ZM2 0.999808V28.9998H4V0.999808H2ZM3.504 29.8638L27.504 15.8638L26.496 14.1358L2.496 28.1358L3.504 29.8638V29.8638ZM27.504 14.1358L3.504 0.135808L2.496 1.86381L26.496 15.8638L27.504 14.1358ZM3.658 25.7518L19.658 11.7518L18.342 10.2478L2.342 24.2478L3.658 25.7518V25.7518ZM2.342 5.75181L18.342 19.7518L19.658 18.2478L3.658 4.24781L2.342 5.75181V5.75181Z" fill="#1A1A1A"/>
</g>
<defs>
<clipPath id="clip0_131_139">
<rect width="30" height="30" fill="white"/>
</clipPath>
</defs>
</svg>
