<svg width="40" height="40" viewBox="0 0 40 40" fill="none" xmlns="http://www.w3.org/2000/svg">
<path d="M22 35.876C26.0346 35.3626 29.7223 33.3323 32.3136 30.1976C34.905 27.0629 36.2054 23.0591 35.9508 18.9999C35.6961 14.9408 33.9053 11.131 30.9425 8.34476C27.9797 5.55854 24.0671 4.00504 20 4C15.9279 3.99697 12.0079 5.54668 9.03868 8.33336C6.06946 11.12 4.27448 14.934 4.01949 18.9981C3.76449 23.0622 5.06867 27.0706 7.66629 30.2065C10.2639 33.3425 13.9595 35.37 18 35.876V24H14V20H18V16.692C18 14.018 18.28 13.048 18.8 12.07C19.3122 11.1024 20.1039 10.3114 21.072 9.8C21.836 9.39 22.786 9.144 24.446 9.038C25.104 8.996 25.956 9.048 27.002 9.198V12.998H26C24.166 12.998 23.408 13.084 22.956 13.326C22.6863 13.4647 22.4667 13.6843 22.328 13.954C22.088 14.406 22 14.854 22 16.69V20H27L26 24H22V35.876ZM20 40C8.954 40 0 31.046 0 20C0 8.954 8.954 0 20 0C31.046 0 40 8.954 40 20C40 31.046 31.046 40 20 40Z" fill="#1A1A1A"/>
</svg>
