<svg width="30" height="26" viewBox="0 0 30 26" fill="none" xmlns="http://www.w3.org/2000/svg">
<path d="M6.46875 22.6891L5.20982 24.7258C5.11344 24.8769 4.97784 25.0019 4.81602 25.0888C4.6542 25.1758 4.47159 25.2217 4.28571 25.2223C4.09332 25.2194 3.90467 25.1713 3.73661 25.0823C3.49352 24.9421 3.31803 24.7169 3.2479 24.455C3.17777 24.1931 3.2186 23.9155 3.36161 23.682L4.63393 21.6452C4.7009 21.5213 4.7939 21.4118 4.90717 21.3235C5.02043 21.2351 5.15157 21.1698 5.29247 21.1315C5.43336 21.0932 5.58102 21.0828 5.72631 21.1009C5.8716 21.119 6.01144 21.1653 6.13717 21.2368C6.26291 21.3084 6.37187 21.4036 6.45732 21.5168C6.54277 21.6299 6.60289 21.7586 6.63397 21.8947C6.66505 22.0308 6.66642 22.1715 6.638 22.3081C6.60958 22.4448 6.55198 22.5744 6.46875 22.6891V22.6891ZM28.9286 17.0752H22.5268L18.4152 10.4558C18.3434 10.3401 18.2483 10.2391 18.1352 10.1585C18.0222 10.0779 17.8935 10.0193 17.7566 9.98621C17.6197 9.95308 17.4772 9.94602 17.3374 9.96543C17.1976 9.98485 17.0632 10.0304 16.942 10.0993C16.8207 10.1663 16.7147 10.2556 16.6301 10.3619C16.5454 10.4682 16.4839 10.5894 16.449 10.7185C16.4141 10.8476 16.4066 10.9821 16.4268 11.114C16.4471 11.2459 16.4947 11.3726 16.567 11.4869L24.7902 24.7258C24.8866 24.8769 25.0222 25.0019 25.184 25.0888C25.3458 25.1758 25.5284 25.2217 25.7143 25.2223C25.9067 25.2194 26.0953 25.1713 26.2634 25.0823C26.5065 24.9421 26.682 24.7169 26.7521 24.455C26.8222 24.1931 26.7814 23.9155 26.6384 23.682L23.7991 19.112H28.9286C29.2127 19.112 29.4853 19.0047 29.6862 18.8137C29.8871 18.6227 30 18.3637 30 18.0936C30 17.8235 29.8871 17.5645 29.6862 17.3735C29.4853 17.1825 29.2127 17.0752 28.9286 17.0752ZM16.942 17.0752H9.96429L15.9107 7.50247H15.9241L19.1384 2.3342C19.284 2.10124 19.3263 1.82284 19.256 1.56024C19.1857 1.29764 19.0085 1.07235 18.7634 0.933925C18.5183 0.795504 18.2254 0.755292 17.9491 0.822136C17.6728 0.88898 17.4358 1.0574 17.2902 1.29036L15 4.96925L12.7098 1.27763C12.6377 1.16228 12.5424 1.06156 12.4293 0.981226C12.3163 0.900889 12.1877 0.842504 12.0509 0.809406C11.9141 0.776308 11.7718 0.769145 11.632 0.788326C11.4923 0.807507 11.358 0.852656 11.2366 0.921195C11.1153 0.989735 11.0093 1.08032 10.9248 1.18779C10.8402 1.29525 10.7788 1.41748 10.744 1.54751C10.7092 1.67754 10.7016 1.81281 10.7218 1.94561C10.742 2.0784 10.7895 2.20612 10.8616 2.32147L13.7545 6.96782L7.47321 17.0752H1.07143C0.787268 17.0752 0.514746 17.1825 0.313814 17.3735C0.112882 17.5645 0 17.8235 0 18.0936C0 18.3637 0.112882 18.6227 0.313814 18.8137C0.514746 19.0047 0.787268 19.112 1.07143 19.112H16.942C17.2261 19.112 17.4986 19.0047 17.6996 18.8137C17.9005 18.6227 18.0134 18.3637 18.0134 18.0936C18.0134 17.8235 17.9005 17.5645 17.6996 17.3735C17.4986 17.1825 17.2261 17.0752 16.942 17.0752Z" fill="#1A1A1A"/>
</svg>
